<?xml version="1.0" encoding="utf-8"?>
<!-- Generator: Adobe Illustrator 15.0.0, SVG Export Plug-In  -->
<!DOCTYPE svg PUBLIC "-//W3C//DTD SVG 1.1//EN" "http://www.w3.org/Graphics/SVG/1.1/DTD/svg11.dtd" [
	<!ENTITY ns_flows "http://ns.adobe.com/Flows/1.0/">
]>
<svg version="1.1"
	 xmlns="http://www.w3.org/2000/svg" xmlns:xlink="http://www.w3.org/1999/xlink" xmlns:a="http://ns.adobe.com/AdobeSVGViewerExtensions/3.0/"
	 x="0px" y="0px" width="818px" height="1000px" viewBox="-0.307 -31.808 818 1000"
	 overflow="visible" enable-background="new -0.307 -31.808 818 1000" xml:space="preserve">
<defs>
</defs>
<path fill="#FFFFFF" d="M1.157,848.632c-2.603-20.821-0.813-46.36,5.368-76.616l43.92-206.912
	c15.941-60.187,42.456-90.28,79.544-90.28h122V80.52c0-22.123,15.291-41.073,45.872-56.852S365.368,0,408.637,0
	c43.269,0,80.194,7.889,110.775,23.668s45.872,34.729,45.872,56.852v394.304h122c37.413,0,64.091,30.094,80.032,90.28l43.92,206.912
	c6.182,30.256,7.971,55.795,5.368,76.615c-2.603,20.822-9.109,37.82-19.521,50.996c-10.41,13.177-21.797,22.692-34.159,28.549
	c-12.363,5.855-25.214,8.783-38.553,8.783H93.389c-13.338,0-26.189-2.928-38.552-8.783c-12.363-5.856-23.75-15.372-34.16-28.549
	C10.266,886.452,3.759,869.454,1.157,848.632L1.157,848.632z M173.909,626.592c0,33.509,22.936,62.22,68.808,86.132
	s101.179,35.868,165.92,35.868c65.066,0,120.536-11.956,166.407-35.868c45.872-23.912,68.809-52.623,68.809-86.132
	c0-17.568-6.995-34.16-20.984-49.776s-33.184-29.117-57.584-40.504v89.304c0,22.123-15.29,41.155-45.872,57.096
	c-30.581,15.941-67.507,23.912-110.775,23.912c-43.27,0-80.195-7.971-110.776-23.912c-30.582-15.94-45.872-34.973-45.872-57.096
	v-89.304c-24.4,11.387-43.513,24.888-57.34,40.504S173.909,609.024,173.909,626.592L173.909,626.592z M326.653,80.52
	c0,11.712,7.971,21.797,23.912,30.256s35.299,12.688,58.072,12.688s42.212-4.229,58.315-12.688
	c16.104-8.458,24.156-18.544,24.156-30.256s-8.052-21.716-24.156-30.012c-16.104-8.296-35.542-12.444-58.315-12.444
	s-42.131,4.148-58.072,12.444S326.653,68.808,326.653,80.52z"/>
</svg>
