<?xml version="1.0" ?><!DOCTYPE svg  PUBLIC '-//W3C//DTD SVG 1.1//EN'  'http://www.w3.org/Graphics/SVG/1.1/DTD/svg11.dtd'><svg enable-background="new 0 0 500 500" height="500px" id="Layer_1" version="1.1" viewBox="0 0 500 500" width="500px" xml:space="preserve" xmlns="http://www.w3.org/2000/svg" xmlns:xlink="http://www.w3.org/1999/xlink"><path clip-rule="evenodd" d="M113.718,354.487c0,12.536,10.177,22.711,22.713,22.711  s22.713-10.175,22.713-22.711c0-12.537-10.177-22.715-22.713-22.715S113.718,341.95,113.718,354.487z M337.04,140.977L112.174,42.31  c-10.085-3.815-21.169,1.179-24.622,11.174c-3.544,9.996,1.815,21.26,11.902,25.075l142.277,62.418H68.29  c-20.077,0-36.34,16.264-36.34,36.343v245.309c0,20.075,16.264,36.341,36.34,36.341h327.077c20.078,0,36.345-16.266,36.345-36.341  V295.431h16.35c11.084,0,19.99-8.91,19.99-19.99v-50.875c0-11.086-8.906-19.989-19.99-19.989h-16.35V177.32  c0-20.079-16.267-36.343-36.345-36.343H337.04z M97.367,186.404h268.925c11.081,0,19.992,8.904,19.992,19.991v32.703  c0,11.086-8.911,19.989-19.992,19.989H186.401l-27.256-27.254l-27.256,27.254H97.367c-11.086,0-19.991-8.903-19.991-19.989v-32.703  C77.375,195.309,86.28,186.404,97.367,186.404z M340.853,318.143c0-12.536,10.18-22.712,22.717-22.712  c12.535,0,22.715,10.176,22.715,22.712c0,12.54-10.18,22.716-22.715,22.716C351.032,340.858,340.853,330.683,340.853,318.143z   M77.375,354.487c0-32.615,26.441-59.057,59.056-59.057s59.055,26.441,59.055,59.057s-26.44,59.056-59.055,59.056  S77.375,387.103,77.375,354.487z" fill="#010101" fill-rule="evenodd"/></svg>