<?xml version="1.0" encoding="utf-8"?>
<!-- Generator: Adobe Illustrator 15.0.0, SVG Export Plug-In  -->
<!DOCTYPE svg PUBLIC "-//W3C//DTD SVG 1.1//EN" "http://www.w3.org/Graphics/SVG/1.1/DTD/svg11.dtd" [
	<!ENTITY ns_flows "http://ns.adobe.com/Flows/1.0/">
]>
<svg version="1.1"
	 xmlns="http://www.w3.org/2000/svg" xmlns:xlink="http://www.w3.org/1999/xlink" xmlns:a="http://ns.adobe.com/AdobeSVGViewerExtensions/3.0/"
	 x="0px" y="0px" width="534px" height="91px" viewBox="-32.999 -14.626 534 91"
	 overflow="visible" enable-background="new -32.999 -14.626 534 91" xml:space="preserve">
<defs>
</defs>
<path fill="#FFFFFF" d="M96.321,25.12l-0.108-4.848h-5.047l-1.818,4.848c-0.246,0.642-0.696,0.963-1.348,0.963h-2.474
	c-0.388,0-0.672-0.144-0.854-0.432c-0.195-0.276-0.22-0.608-0.074-0.996l8.925-23.69c0.235-0.642,0.679-0.963,1.332-0.963h4.814
	c0.653,0,0.989,0.321,1.009,0.963l0.554,23.69c-0.002,0.388-0.144,0.72-0.424,0.996c-0.295,0.288-0.624,0.432-0.989,0.432h-2.49
	C96.666,26.082,96.329,25.761,96.321,25.12z M96.099,15.457l-0.185-7.803l-2.937,7.803H96.099z"/>
<path fill="#FFFFFF" d="M130.428,4.832l-2.895,16.419c-0.229,1.295-0.92,2.424-2.075,3.387c-1.155,0.963-2.363,1.444-3.625,1.444
	h-8.932c-0.797,0-1.125-0.398-0.985-1.195l4.177-23.69c0.141-0.797,0.609-1.195,1.406-1.195h8.915c1.272,0,2.315,0.487,3.129,1.461
	C130.357,2.437,130.653,3.56,130.428,4.832z M122.716,21.268l2.901-16.452h-5.329l-2.901,16.452H122.716z"/>
<path fill="#FFFFFF" d="M139.315,26.082h-5.495c-1.284,0-2.324-0.476-3.119-1.428c-0.795-0.952-1.08-2.069-0.853-3.354l2.91-16.502
	c0.225-1.272,0.906-2.391,2.044-3.354C135.94,0.481,137.146,0,138.419,0h5.479c1.272,0,2.314,0.481,3.124,1.444
	c0.81,0.963,1.102,2.086,0.875,3.37l-2.904,16.469c-0.227,1.284-0.914,2.404-2.062,3.362
	C141.782,25.604,140.577,26.082,139.315,26.082z M140.164,21.268l2.901-16.452h-5.495l-2.901,16.452H140.164z"/>
<path fill="#FFFFFF" d="M159.619,24.954c-0.985,0.753-2.053,1.129-3.204,1.129h-5.13c-1.273,0-2.31-0.479-3.109-1.436
	c-0.8-0.958-1.086-2.078-0.86-3.362L150.223,4.8c0.225-1.272,0.909-2.391,2.052-3.354c1.143-0.963,2.352-1.444,3.625-1.444h5.097
	c1.272,0,2.318,0.487,3.137,1.461c0.819,0.974,1.116,2.098,0.892,3.37l-0.134,0.764c-0.139,0.786-0.606,1.179-1.403,1.179h-2.44
	c-0.786,0-1.109-0.393-0.971-1.179l0.137-0.78h-5.18l-2.901,16.452h5.18l0.161-0.913c0.141-0.797,0.604-1.195,1.39-1.195h2.44
	c0.797,0,1.125,0.398,0.984,1.195l-0.161,0.913C161.882,22.663,161.045,23.891,159.619,24.954z"/>
<path fill="#FFFFFF" d="M173.747,26.082h-5.312c-1.284,0-2.326-0.479-3.125-1.436c-0.8-0.958-1.086-2.078-0.86-3.362l3.542-20.088
	c0.141-0.797,0.609-1.195,1.406-1.195h2.424c0.797,0,1.125,0.398,0.984,1.195l-3.539,20.071h5.396l3.539-20.071
	c0.141-0.797,0.604-1.195,1.39-1.195h2.44c0.797,0,1.125,0.398,0.984,1.195l-3.536,20.055c-0.229,1.295-0.923,2.424-2.083,3.387
	C176.237,25.601,175.02,26.082,173.747,26.082z"/>
<path fill="#FFFFFF" d="M197.786,26.082h-2.44c-0.797,0-1.125-0.398-0.985-1.195l2.38-13.497l-4.295,6.657
	c-0.291,0.454-0.69,0.681-1.199,0.681c-0.51,0-0.824-0.227-0.943-0.681l-1.947-6.657l-2.38,13.497
	c-0.14,0.797-0.609,1.195-1.406,1.195h-2.44c-0.786,0-1.108-0.398-0.968-1.195l4.177-23.69c0.141-0.797,0.604-1.195,1.39-1.195
	h2.872c0.498,0,0.816,0.232,0.956,0.697l2.41,8.268l5.343-8.268c0.292-0.465,0.693-0.697,1.202-0.697h2.872
	c0.797,0,1.125,0.398,0.984,1.195l-4.177,23.69C199.052,25.684,198.583,26.082,197.786,26.082z"/>
<path fill="#FFFFFF" d="M212.678,26.082h-6.79c-1.262,0-2.262-0.448-3-1.345c-0.738-0.896-0.996-1.976-0.774-3.237l3.58-20.304
	c0.141-0.797,0.609-1.195,1.406-1.195h10.077c0.797,0,1.125,0.398,0.984,1.195l-0.43,2.44c-0.139,0.786-0.606,1.179-1.403,1.179
	h-6.458l-1.024,5.811h5.396c0.797,0,1.125,0.398,0.985,1.195l-0.431,2.44c-0.141,0.797-0.609,1.195-1.406,1.195h-5.396l-1.024,5.811
	h6.558c0.797,0,1.125,0.398,0.984,1.195l-0.427,2.424C213.943,25.684,213.475,26.082,212.678,26.082z"/>
<path fill="#FFFFFF" d="M226.094,25.319l-2.689-12.899l-2.199,12.468c-0.14,0.797-0.609,1.195-1.406,1.195h-2.407
	c-0.797,0-1.125-0.398-0.985-1.195l4.177-23.69c0.141-0.797,0.609-1.195,1.406-1.195h3.154c0.531,0,0.857,0.255,0.978,0.764
	l2.703,12.916l2.201-12.484c0.141-0.797,0.609-1.195,1.406-1.195h2.39c0.798,0,1.125,0.398,0.984,1.195l-4.174,23.674
	c-0.139,0.786-0.601,1.179-1.386,1.179l-3.157,0.017C226.535,26.077,226.203,25.828,226.094,25.319z"/>
<path fill="#FFFFFF" d="M250.692,4.816h-3.586l-3.539,20.071c-0.141,0.797-0.608,1.195-1.405,1.195h-2.44
	c-0.797,0-1.125-0.398-0.984-1.195l3.539-20.071h-3.586c-0.797,0-1.125-0.393-0.986-1.179l0.43-2.44
	c0.141-0.797,0.609-1.195,1.406-1.195h12.002c0.797,0,1.125,0.398,0.984,1.195l-0.43,2.44
	C251.957,4.423,251.489,4.816,250.692,4.816z"/>
<path fill="#FFFFFF" d="M257.987,25.12l-0.108-4.848h-5.047l-1.817,4.848c-0.246,0.642-0.695,0.963-1.35,0.963h-2.473
	c-0.39,0-0.672-0.144-0.854-0.432c-0.194-0.276-0.22-0.608-0.073-0.996l8.924-23.69c0.236-0.642,0.681-0.963,1.332-0.963h4.814
	c0.654,0,0.99,0.321,1.01,0.963l0.555,23.69c-0.002,0.388-0.144,0.72-0.424,0.996c-0.296,0.288-0.625,0.432-0.99,0.432h-2.49
	C258.331,26.082,257.995,25.761,257.987,25.12z M257.767,15.457l-0.187-7.803l-2.937,7.803H257.767z"/>
<path fill="#FFFFFF" d="M278.851,26.082h-2.604c-0.531,0-0.852-0.255-0.961-0.764l-2.079-9.861h-1.428l-1.664,9.43
	c-0.141,0.797-0.608,1.195-1.405,1.195h-2.44c-0.798,0-1.125-0.398-0.984-1.195l4.177-23.69c0.142-0.797,0.608-1.195,1.406-1.195
	h8.483c1.271,0,2.315,0.484,3.132,1.452c0.813,0.969,1.106,2.095,0.881,3.379l-1.02,5.777c-0.18,1.019-0.657,1.942-1.435,2.772
	c-0.778,0.83-1.656,1.417-2.634,1.76l1.977,9.313c0.082,0.409-0.022,0.78-0.313,1.112C279.635,25.911,279.272,26.082,278.851,26.082
	z M277.51,10.626l1.024-5.811h-4.881l-1.024,5.811H277.51z"/>
<path fill="#FFFFFF" d="M294.542,16.47l-1.484,8.417c-0.141,0.797-0.608,1.195-1.405,1.195h-2.49c-0.797,0-1.125-0.398-0.984-1.195
	l1.49-8.45l-2.613-14.842c-0.075-0.388,0.038-0.753,0.343-1.096c0.312-0.332,0.668-0.498,1.066-0.498h2.424
	c0.564,0,0.896,0.271,0.986,0.813l1.437,8.898l4.524-8.898c0.271-0.542,0.695-0.813,1.271-0.813h2.572
	c0.398,0,0.689,0.172,0.873,0.515c0.174,0.332,0.161,0.691-0.04,1.079L294.542,16.47z"/>
<path fill="#FFFFFF" d="M318.694,26.082h-4.849c-1.282,0-2.325-0.479-3.124-1.436c-0.801-0.958-1.085-2.084-0.856-3.379l0.162-0.913
	c0.141-0.797,0.603-1.195,1.388-1.195h2.441c0.797,0,1.126,0.398,0.984,1.195l-0.162,0.913h4.863l1.025-5.811h-4.849
	c-1.283,0-2.326-0.481-3.123-1.444c-0.799-0.963-1.085-2.086-0.857-3.37l1.026-5.827c0.226-1.272,0.905-2.394,2.045-3.362
	c1.14-0.968,2.352-1.452,3.635-1.452h4.848c1.273,0,2.309,0.481,3.107,1.444c0.798,0.963,1.086,2.081,0.86,3.354l-0.141,0.797
	c-0.139,0.786-0.601,1.179-1.385,1.179h-2.441c-0.797,0-1.127-0.393-0.988-1.179l0.139-0.78h-4.863l-1.024,5.811h4.863
	c1.273,0,2.309,0.481,3.107,1.444c0.798,0.963,1.086,2.081,0.86,3.354l-1.032,5.86c-0.229,1.295-0.911,2.418-2.048,3.37
	C321.172,25.607,319.968,26.082,318.694,26.082z"/>
<path fill="#FFFFFF" d="M337.206,26.082h-6.791c-1.262,0-2.261-0.448-2.999-1.345s-0.997-1.976-0.775-3.237l3.58-20.304
	c0.142-0.797,0.609-1.195,1.406-1.195h10.078c0.797,0,1.125,0.398,0.984,1.195l-0.431,2.44c-0.139,0.786-0.605,1.179-1.402,1.179
	h-6.459l-1.024,5.811h5.396c0.798,0,1.125,0.398,0.984,1.195l-0.43,2.44c-0.142,0.797-0.609,1.195-1.406,1.195h-5.396l-1.024,5.811
	h6.559c0.797,0,1.125,0.398,0.985,1.195l-0.428,2.424C338.472,25.684,338.003,26.082,337.206,26.082z"/>
<path fill="#FFFFFF" d="M354.505,26.082h-2.606c-0.531,0-0.852-0.255-0.962-0.764l-2.078-9.861h-1.429l-1.663,9.43
	c-0.141,0.797-0.608,1.195-1.405,1.195h-2.439c-0.797,0-1.125-0.398-0.984-1.195l4.178-23.69c0.141-0.797,0.608-1.195,1.405-1.195
	h8.482c1.273,0,2.317,0.484,3.131,1.452c0.814,0.969,1.109,2.095,0.883,3.379l-1.019,5.777c-0.18,1.019-0.659,1.942-1.438,2.772
	c-0.777,0.83-1.653,1.417-2.634,1.76l1.978,9.313c0.083,0.409-0.021,0.78-0.312,1.112C355.287,25.911,354.925,26.082,354.505,26.082
	z M353.162,10.626l1.023-5.811h-4.881l-1.023,5.811H353.162z"/>
<path fill="#FFFFFF" d="M361.81,26.082h-2.44c-0.797,0-1.125-0.398-0.984-1.195l4.177-23.69c0.142-0.797,0.609-1.195,1.406-1.195
	h2.441c0.797,0,1.125,0.398,0.983,1.195l-4.177,23.69C363.075,25.684,362.606,26.082,361.81,26.082z"/>
<path fill="#FFFFFF" d="M376.7,26.082h-6.789c-1.262,0-2.263-0.448-3.001-1.345s-0.995-1.976-0.773-3.237l3.58-20.304
	c0.142-0.797,0.609-1.195,1.406-1.195h10.076c0.797,0,1.125,0.398,0.983,1.195l-0.43,2.44c-0.139,0.786-0.605,1.179-1.403,1.179
	h-6.457l-1.023,5.811h5.395c0.797,0,1.125,0.398,0.984,1.195l-0.43,2.44c-0.142,0.797-0.609,1.195-1.406,1.195h-5.396l-1.024,5.811
	h6.557c0.797,0,1.125,0.398,0.985,1.195l-0.428,2.424C377.966,25.684,377.497,26.082,376.7,26.082z"/>
<path fill="#FFFFFF" d="M389.899,26.082h-4.849c-1.285,0-2.325-0.479-3.126-1.436c-0.799-0.958-1.085-2.084-0.856-3.379l0.161-0.913
	c0.142-0.797,0.604-1.195,1.391-1.195h2.438c0.798,0,1.126,0.398,0.985,1.195l-0.162,0.913h4.865l1.025-5.811h-4.849
	c-1.285,0-2.326-0.481-3.125-1.444c-0.799-0.963-1.085-2.086-0.857-3.37l1.026-5.827c0.226-1.272,0.907-2.394,2.046-3.362
	c1.141-0.968,2.351-1.452,3.636-1.452h4.848c1.271,0,2.309,0.481,3.106,1.444c0.799,0.963,1.087,2.081,0.861,3.354l-0.141,0.797
	c-0.14,0.786-0.603,1.179-1.388,1.179h-2.438c-0.797,0-1.127-0.393-0.988-1.179l0.139-0.78h-4.865l-1.024,5.811h4.865
	c1.271,0,2.308,0.481,3.105,1.444c0.801,0.963,1.088,2.081,0.862,3.354l-1.033,5.86c-0.229,1.295-0.91,2.418-2.048,3.37
	C392.374,25.607,391.171,26.082,389.899,26.082z"/>
<path fill="#FFFFFF" d="M11.817,59.12l-0.108-4.848H6.662L4.844,59.12c-0.246,0.643-0.696,0.963-1.348,0.963H1.022
	c-0.388,0-0.672-0.145-0.854-0.432c-0.195-0.276-0.22-0.608-0.074-0.996l8.925-23.69c0.235-0.642,0.679-0.963,1.332-0.963h4.814
	c0.653,0,0.989,0.321,1.009,0.963l0.554,23.69c-0.002,0.388-0.144,0.72-0.424,0.996c-0.295,0.287-0.624,0.432-0.989,0.432h-2.49
	C12.162,60.082,11.825,59.761,11.817,59.12z M11.595,49.457l-0.185-7.804l-2.937,7.804H11.595z"/>
<path fill="#FFFFFF" d="M28.664,60.082h-8.583c-0.786,0-1.108-0.397-0.968-1.194l4.177-23.69c0.141-0.798,0.604-1.195,1.39-1.195
	h8.583c1.262,0,2.297,0.481,3.107,1.444s1.103,2.08,0.878,3.354l-0.761,4.316c-0.193,1.096-0.712,2.064-1.558,2.904l-0.989,0.996
	l0.662,1.047c0.526,0.84,0.695,1.799,0.506,2.871l-0.767,4.351c-0.227,1.284-0.911,2.403-2.054,3.362
	C31.145,59.604,29.937,60.082,28.664,60.082z M26.442,44.626h4.947l1.024-5.811h-4.947L26.442,44.626z M24.565,55.269h4.947
	l1.024-5.812h-4.947L24.565,55.269z"/>
<path fill="#FFFFFF" d="M46.129,60.082h-5.495c-1.284,0-2.324-0.476-3.119-1.429c-0.795-0.951-1.08-2.068-0.853-3.354l2.91-16.502
	c0.225-1.271,0.906-2.391,2.044-3.354C42.754,34.481,43.96,34,45.233,34h5.479c1.272,0,2.314,0.481,3.124,1.444
	s1.102,2.086,0.875,3.369l-2.904,16.47c-0.227,1.284-0.914,2.403-2.062,3.362C48.596,59.604,47.391,60.082,46.129,60.082z
	 M46.978,55.269l2.901-16.453h-5.495l-2.901,16.453H46.978z"/>
<path fill="#FFFFFF" d="M63.428,60.082h-5.312c-1.284,0-2.326-0.479-3.125-1.437c-0.8-0.957-1.086-2.078-0.86-3.361l3.542-20.088
	c0.141-0.797,0.609-1.195,1.406-1.195h2.424c0.797,0,1.125,0.398,0.984,1.195l-3.539,20.07h5.396l3.539-20.07
	c0.141-0.797,0.604-1.195,1.39-1.195h2.44c0.797,0,1.125,0.398,0.984,1.195l-3.536,20.055c-0.229,1.295-0.923,2.424-2.083,3.387
	C65.918,59.601,64.7,60.082,63.428,60.082z"/>
<path fill="#FFFFFF" d="M87.581,38.815h-3.586l-3.539,20.072c-0.14,0.797-0.609,1.194-1.406,1.194h-2.44
	c-0.797,0-1.125-0.397-0.985-1.194l3.539-20.072h-3.586c-0.797,0-1.126-0.393-0.987-1.178l0.43-2.44
	c0.141-0.798,0.609-1.195,1.406-1.195H88.43c0.797,0,1.125,0.397,0.984,1.195l-0.43,2.44C88.845,38.423,88.377,38.815,87.581,38.815
	z"/>
<path fill="#FFFFFF" d="M104.832,60.082h-4.35c-1.284,0-2.326-0.479-3.125-1.437c-0.8-0.957-1.086-2.078-0.86-3.361l0.164-0.93
	c0.141-0.797,0.609-1.195,1.406-1.195h2.44c0.785,0,1.108,0.398,0.968,1.195l-0.161,0.912h4.383l3.539-20.07
	c0.141-0.797,0.604-1.195,1.39-1.195h2.457c0.786,0,1.108,0.398,0.968,1.195l-3.539,20.07c-0.229,1.295-0.917,2.422-2.065,3.379
	C107.299,59.604,106.094,60.082,104.832,60.082z"/>
<path fill="#FFFFFF" d="M123.413,59.12l-0.108-4.848h-5.047l-1.818,4.848c-0.246,0.643-0.696,0.963-1.348,0.963h-2.474
	c-0.388,0-0.672-0.145-0.854-0.432c-0.195-0.276-0.22-0.608-0.074-0.996l8.925-23.69c0.235-0.642,0.679-0.963,1.332-0.963h4.814
	c0.653,0,0.989,0.321,1.009,0.963l0.554,23.69c-0.002,0.388-0.144,0.72-0.424,0.996c-0.295,0.287-0.624,0.432-0.989,0.432h-2.49
	C123.758,60.082,123.421,59.761,123.413,59.12z M123.19,49.457l-0.185-7.804l-2.937,7.804H123.19z"/>
<path fill="#FFFFFF" d="M141.72,51.233h-4.848l-1.35,7.654c-0.14,0.797-0.604,1.194-1.389,1.194h-2.44
	c-0.797,0-1.125-0.397-0.985-1.194l4.177-23.69c0.141-0.798,0.609-1.195,1.406-1.195h8.483c1.262,0,2.299,0.483,3.114,1.452
	c0.814,0.969,1.108,2.095,0.881,3.379l-1.334,7.57c-0.229,1.295-0.92,2.424-2.075,3.387
	C144.205,50.753,142.993,51.233,141.72,51.233z M142.619,46.419l1.34-7.604h-4.897l-1.34,7.604H142.619z"/>
<path fill="#FFFFFF" d="M156.649,59.12l-0.108-4.848h-5.047l-1.818,4.848c-0.246,0.643-0.696,0.963-1.348,0.963h-2.474
	c-0.388,0-0.672-0.145-0.854-0.432c-0.195-0.276-0.22-0.608-0.074-0.996l8.925-23.69c0.235-0.642,0.679-0.963,1.332-0.963h4.814
	c0.653,0,0.989,0.321,1.009,0.963l0.554,23.69c-0.002,0.388-0.144,0.72-0.424,0.996c-0.295,0.287-0.624,0.432-0.989,0.432h-2.49
	C156.994,60.082,156.657,59.761,156.649,59.12z M156.427,49.457l-0.185-7.804l-2.937,7.804H156.427z"/>
<path fill="#FFFFFF" d="M173.631,59.319l-2.689-12.899l-2.199,12.468c-0.14,0.797-0.609,1.195-1.406,1.195h-2.407
	c-0.797,0-1.125-0.398-0.985-1.195l4.177-23.689c0.141-0.797,0.609-1.195,1.406-1.195h3.154c0.531,0,0.857,0.255,0.978,0.764
	l2.703,12.916l2.201-12.483c0.141-0.798,0.609-1.195,1.406-1.195h2.391c0.797,0,1.125,0.397,0.984,1.195l-4.174,23.674
	c-0.139,0.786-0.601,1.179-1.386,1.179l-3.157,0.018C174.072,60.077,173.74,59.828,173.631,59.319z"/>
<path fill="#FFFFFF" d="M192.654,60.082h-6.79c-1.262,0-2.262-0.448-3-1.345c-0.738-0.896-0.997-1.977-0.774-3.237l3.58-20.304
	c0.141-0.797,0.609-1.195,1.406-1.195h10.077c0.797,0,1.125,0.398,0.984,1.195l-0.43,2.439c-0.139,0.786-0.606,1.18-1.403,1.18
	h-6.458l-1.024,5.811h5.396c0.797,0,1.125,0.398,0.985,1.195l-0.431,2.439c-0.141,0.797-0.609,1.195-1.406,1.195h-5.396
	l-1.024,5.811h6.558c0.797,0,1.125,0.398,0.984,1.195l-0.427,2.424C193.92,59.685,193.451,60.082,192.654,60.082z"/>
<path fill="#FFFFFF" d="M205.853,60.082h-4.848c-1.284,0-2.326-0.479-3.125-1.437c-0.8-0.957-1.085-2.084-0.857-3.379l0.161-0.912
	c0.141-0.797,0.604-1.195,1.39-1.195h2.44c0.797,0,1.125,0.398,0.984,1.195l-0.161,0.912h4.864l1.024-5.811h-4.848
	c-1.284,0-2.325-0.48-3.124-1.443c-0.799-0.964-1.085-2.087-0.858-3.371l1.027-5.826c0.225-1.272,0.906-2.395,2.045-3.362
	c1.139-0.968,2.351-1.452,3.635-1.452h4.848c1.272,0,2.308,0.48,3.107,1.443c0.799,0.964,1.086,2.082,0.861,3.354l-0.14,0.798
	c-0.139,0.785-0.601,1.178-1.387,1.178h-2.44c-0.797,0-1.126-0.393-0.987-1.178l0.137-0.781h-4.864l-1.024,5.812h4.864
	c1.272,0,2.308,0.481,3.107,1.444c0.799,0.963,1.086,2.08,0.861,3.354l-1.033,5.86c-0.229,1.295-0.911,2.418-2.047,3.37
	C208.329,59.606,207.125,60.082,205.853,60.082z"/>
<path fill="#FFFFFF" d="M224.363,60.082h-6.79c-1.262,0-2.262-0.448-3-1.345c-0.738-0.896-0.997-1.977-0.774-3.237l3.58-20.304
	c0.141-0.797,0.609-1.195,1.406-1.195h10.077c0.797,0,1.125,0.398,0.984,1.195l-0.43,2.439c-0.139,0.786-0.606,1.18-1.403,1.18
	h-6.458l-1.024,5.811h5.396c0.797,0,1.125,0.398,0.985,1.195l-0.431,2.439c-0.141,0.797-0.609,1.195-1.406,1.195h-5.396
	l-1.024,5.811h6.558c0.797,0,1.125,0.398,0.984,1.195l-0.427,2.424C225.629,59.685,225.16,60.082,224.363,60.082z"/>
<path fill="#FFFFFF" d="M246.231,49.042c1.213-3.055,2.186-5.488,2.914-7.305c0.729-1.815,1.633-4.084,2.711-6.807
	C252.11,34.31,252.558,34,253.201,34h2.489c0.388,0,0.67,0.149,0.851,0.448c0.178,0.31,0.194,0.642,0.058,0.996l-9.479,23.724
	c-0.239,0.608-0.681,0.913-1.323,0.913h-3.037c-0.643,0-0.971-0.305-0.984-0.913l-1.112-23.724
	c-0.026-0.354,0.108-0.688,0.407-0.996c0.285-0.299,0.621-0.448,1.01-0.448h2.49c0.632,0,0.97,0.31,1.015,0.931
	c0.117,2.723,0.215,4.99,0.293,6.807C245.954,43.554,246.073,45.988,246.231,49.042z"/>
<path fill="#FFFFFF" d="M258.33,60.082h-2.44c-0.798,0-1.125-0.397-0.984-1.194l4.178-23.69c0.141-0.798,0.609-1.195,1.406-1.195
	h2.441c0.797,0,1.125,0.397,0.983,1.195l-4.179,23.69C259.597,59.685,259.127,60.082,258.33,60.082z"/>
<path fill="#FFFFFF" d="M280.571,38.832l-2.896,16.419c-0.228,1.295-0.92,2.424-2.075,3.387c-1.153,0.963-2.361,1.444-3.624,1.444
	h-8.932c-0.797,0-1.125-0.397-0.984-1.194l4.178-23.69c0.142-0.798,0.609-1.195,1.406-1.195h8.914c1.273,0,2.316,0.487,3.129,1.461
	C280.501,36.437,280.796,37.56,280.571,38.832z M272.858,55.269l2.9-16.453h-5.33l-2.9,16.453H272.858z"/>
<path fill="#FFFFFF" d="M290.52,60.082h-6.788c-1.263,0-2.264-0.448-3.002-1.345c-0.737-0.897-0.994-1.977-0.771-3.237l3.58-20.304
	c0.141-0.797,0.609-1.195,1.406-1.195h10.075c0.798,0,1.125,0.398,0.984,1.195l-0.431,2.439c-0.14,0.786-0.606,1.18-1.403,1.18
	h-6.457l-1.024,5.811h5.396c0.797,0,1.125,0.398,0.984,1.195l-0.432,2.439c-0.141,0.797-0.607,1.195-1.404,1.195h-5.396
	l-1.023,5.811h6.557c0.797,0,1.125,0.398,0.984,1.195l-0.429,2.424C291.785,59.685,291.316,60.082,290.52,60.082z"/>
<path fill="#FFFFFF" d="M304.35,60.082h-5.496c-1.282,0-2.321-0.476-3.116-1.429c-0.795-0.951-1.08-2.068-0.854-3.354l2.909-16.502
	c0.225-1.271,0.906-2.391,2.044-3.354c1.139-0.963,2.344-1.444,3.617-1.444h5.479c1.273,0,2.314,0.481,3.123,1.444
	c0.812,0.963,1.103,2.086,0.875,3.369l-2.903,16.47c-0.227,1.284-0.912,2.403-2.062,3.362
	C306.816,59.604,305.611,60.082,304.35,60.082z M305.199,55.269l2.899-16.453h-5.496l-2.899,16.453H305.199z"/>
<path fill="#FFFFFF" d="M329.816,60.082h-5.197c-1.272,0-2.31-0.476-3.109-1.429c-0.8-0.951-1.088-2.068-0.86-3.354l2.905-16.484
	c0.226-1.272,0.912-2.395,2.062-3.362c1.149-0.968,2.36-1.452,3.635-1.452h5.164c1.271,0,2.312,0.484,3.121,1.452
	c0.809,0.969,1.102,2.09,0.877,3.362l-0.146,0.83c-0.139,0.785-0.602,1.179-1.387,1.179h-2.438c-0.797,0-1.127-0.394-0.988-1.179
	l0.146-0.83h-5.213l-2.899,16.451h5.213l1.023-5.811h-2.108c-0.785,0-1.108-0.398-0.968-1.195l0.431-2.439
	c0.141-0.797,0.604-1.195,1.389-1.195h5.744c0.786,0,1.109,0.398,0.969,1.195l-1.665,9.445c-0.229,1.295-0.918,2.422-2.065,3.379
	C332.3,59.604,331.088,60.082,329.816,60.082z"/>
<path fill="#FFFFFF" d="M348.414,59.12l-0.107-4.848h-5.047l-1.817,4.848c-0.246,0.643-0.696,0.963-1.351,0.963h-2.473
	c-0.39,0-0.672-0.145-0.854-0.432c-0.194-0.276-0.22-0.608-0.073-0.996l8.926-23.69c0.233-0.642,0.68-0.963,1.332-0.963h4.813
	c0.652,0,0.99,0.321,1.011,0.963l0.553,23.69c-0.002,0.388-0.144,0.72-0.424,0.996c-0.295,0.287-0.625,0.432-0.99,0.432h-2.49
	C348.758,60.082,348.422,59.761,348.414,59.12z M348.192,49.457l-0.186-7.804l-2.937,7.804H348.192z"/>
<path fill="#FFFFFF" d="M372.332,60.082h-2.439c-0.797,0-1.125-0.397-0.983-1.194l2.38-13.498l-4.295,6.657
	c-0.291,0.454-0.69,0.681-1.2,0.681c-0.509,0-0.823-0.227-0.942-0.681l-1.946-6.657l-2.38,13.498
	c-0.142,0.797-0.609,1.194-1.406,1.194h-2.439c-0.787,0-1.108-0.397-0.969-1.194l4.178-23.69c0.142-0.798,0.604-1.195,1.392-1.195
	h2.871c0.498,0,0.815,0.231,0.957,0.697l2.408,8.268l5.344-8.268c0.293-0.466,0.692-0.697,1.202-0.697h2.871
	c0.798,0,1.125,0.397,0.984,1.195l-4.178,23.69C373.598,59.685,373.129,60.082,372.332,60.082z"/>
<path fill="#FFFFFF" d="M387.225,60.082h-6.791c-1.262,0-2.261-0.448-2.999-1.345c-0.737-0.897-0.996-1.977-0.773-3.237l3.58-20.304
	c0.141-0.797,0.608-1.195,1.406-1.195h10.077c0.798,0,1.125,0.398,0.984,1.195l-0.431,2.439c-0.14,0.786-0.606,1.18-1.403,1.18
	h-6.459l-1.024,5.811h5.396c0.797,0,1.125,0.398,0.984,1.195l-0.432,2.439c-0.141,0.797-0.607,1.195-1.405,1.195h-5.396
	l-1.024,5.811h6.56c0.797,0,1.125,0.398,0.983,1.195l-0.428,2.424C388.49,59.685,388.022,60.082,387.225,60.082z"/>
<path fill="#FFFFFF" d="M415.879,60.082h-2.441c-0.797,0-1.125-0.397-0.983-1.194l2.38-13.498l-4.295,6.657
	c-0.289,0.454-0.69,0.681-1.198,0.681c-0.51,0-0.823-0.227-0.941-0.681l-1.947-6.657l-2.38,13.498
	c-0.142,0.797-0.609,1.194-1.406,1.194h-2.441c-0.784,0-1.106-0.397-0.967-1.194l4.178-23.69c0.142-0.798,0.604-1.195,1.39-1.195
	h2.873c0.498,0,0.815,0.231,0.955,0.697l2.41,8.268l5.344-8.268c0.291-0.466,0.692-0.697,1.201-0.697h2.872
	c0.798,0,1.125,0.397,0.984,1.195l-4.178,23.69C417.145,59.685,416.676,60.082,415.879,60.082z"/>
<path fill="#FFFFFF" d="M429.541,60.082h-5.312c-1.282,0-2.324-0.479-3.122-1.437c-0.802-0.957-1.088-2.078-0.861-3.361
	l3.543-20.088c0.141-0.797,0.609-1.195,1.406-1.195h2.424c0.797,0,1.125,0.398,0.983,1.195l-3.538,20.07h5.395l3.539-20.07
	c0.141-0.797,0.604-1.195,1.391-1.195h2.439c0.797,0,1.125,0.398,0.983,1.195l-3.536,20.055c-0.229,1.295-0.922,2.424-2.081,3.387
	C432.03,59.601,430.813,60.082,429.541,60.082z"/>
<path fill="#FFFFFF" d="M446.426,60.082h-4.848c-1.285,0-2.325-0.479-3.125-1.437c-0.801-0.957-1.086-2.084-0.857-3.379l0.16-0.912
	c0.142-0.797,0.604-1.195,1.392-1.195h2.438c0.797,0,1.125,0.398,0.984,1.195l-0.16,0.912h4.865l1.023-5.811h-4.848
	c-1.285,0-2.325-0.48-3.124-1.443c-0.799-0.964-1.086-2.087-0.859-3.371l1.027-5.826c0.225-1.272,0.906-2.395,2.046-3.362
	s2.351-1.452,3.636-1.452h4.849c1.271,0,2.307,0.48,3.104,1.443c0.8,0.964,1.087,2.082,0.862,3.354l-0.142,0.798
	c-0.138,0.785-0.601,1.178-1.388,1.178h-2.438c-0.798,0-1.125-0.393-0.987-1.178l0.138-0.781h-4.865l-1.023,5.812h4.865
	c1.271,0,2.308,0.481,3.105,1.444s1.086,2.08,0.862,3.354l-1.034,5.86c-0.228,1.295-0.91,2.418-2.047,3.37
	C448.901,59.606,447.697,60.082,446.426,60.082z"/>
<path fill="#FFFFFF" d="M457.199,60.082h-2.439c-0.797,0-1.125-0.397-0.983-1.194l4.178-23.69c0.141-0.798,0.609-1.195,1.406-1.195
	h2.438c0.797,0,1.125,0.397,0.984,1.195l-4.179,23.69C458.465,59.685,457.996,60.082,457.199,60.082z"/>
<path fill="#FFFFFF" d="M473.867,58.954c-0.984,0.753-2.054,1.129-3.203,1.129h-5.131c-1.271,0-2.309-0.479-3.107-1.436
	c-0.801-0.959-1.087-2.078-0.86-3.362l2.906-16.485c0.226-1.271,0.91-2.391,2.053-3.354c1.145-0.963,2.354-1.444,3.627-1.444h5.096
	c1.273,0,2.318,0.487,3.137,1.461c0.82,0.974,1.116,2.099,0.893,3.37l-0.136,0.764c-0.138,0.786-0.605,1.18-1.402,1.18h-2.439
	c-0.787,0-1.108-0.394-0.972-1.18l0.138-0.779h-5.18l-2.9,16.451h5.181l0.159-0.912c0.142-0.797,0.604-1.195,1.392-1.195h2.438
	c0.797,0,1.125,0.398,0.984,1.195l-0.16,0.912C476.131,56.663,475.295,57.892,473.867,58.954z"/>
</svg>
