<?xml version="1.0" ?><svg height="16px" version="1.1" viewBox="0 0 16 16" width="16px" xmlns="http://www.w3.org/2000/svg" xmlns:sketch="http://www.bohemiancoding.com/sketch/ns" xmlns:xlink="http://www.w3.org/1999/xlink"><title/><defs/><g fill="none" fill-rule="evenodd" id="Icons with numbers" stroke="none" stroke-width="1"><g fill="#000000" id="Group" transform="translate(-576.000000, -528.000000)"><path d="M592,536 C592,540.418278 588.418278,544 584,544 C579.581722,544 576,540.418278 576,536 C576,531.581722 579.581722,528 584,528 C588.418278,528 592,531.581722 592,536 L592,536 Z M590,536 C590,539.313709 587.313709,542 584,542 C580.686291,542 578,539.313709 578,536 C578,532.686291 580.686291,530 584,530 C587.313709,530 590,532.686291 590,536 L590,536 Z M584,531 L588,535 L585,535 L585,541 L583,541 L583,535 L580,535 L584,531 L584,531 Z M584,531" id="Shape"/></g></g></svg>